<?xml version="1.0" encoding="UTF-8"?>
<svg version="1.1" viewBox="0 0 2048 2048" width="1280" height="1280" xmlns="http://www.w3.org/2000/svg">
<path transform="translate(1356,409)" d="m0 0h9l12 3 11 7 10 9 12 13 7 8 13 14 9 11 13 15 11 13 11 14 14 18 12 16 10 13 13 17 10 13h2l11-14 13-16 13-17 10-12 7-9 12-13 7-8 18-21h2l2-4 12-13 9-8 9-4 9-2h12l13 3 10 6 9 8 7 8 12 13 7 8 9 10 12 14 9 11 14 17 9 11 14 18 9 12 16 21 10 14 14 20 12 17 11 17 16 25 13 20 14 22 30 52 6 12 3 12v8l-3 12-5 10-9 10-10 6-11 3-8 1h-26l10 16 15 26 14 24 18 34 11 20 11 23 25 50 8 18 2 8v13l-4 13-7 10-4 5-11 7-9 3-8 1h-36l27 54 14 31 11 27 15 41 14 45 2 9v14l-4 12-6 9-9 9-10 5-7 2-8 1h-204l1 7v152l2 6 12 7 14 12 12 12 10 13v2l19-3h18l20 3 16 5 16 8 14 9 12 11 8 8 10 14 3 5h18l17 3 12 4 12 6 11 8 5 4 7 8 8 11 8 17 4 14 1 5v23l-6 20-9 17-9 12-11 10-15 9-16 6-18 3h-75l-10-4-8-7-5-10-2-8h-80l-1 9-5 9-9 8-11 3h-1733l-11-4-7-6-7-12v-14l5-10 6-7 12-6 6-1h73l17-1 12-20 14-23 12-20 16-26 19-32 12-19 13-22 8-13 12-20 8-13 17-28 12-20 11-18 17-28 15-25 8-13 17-28 9-15 31-51 15-25 8-13 17-28 9-15 82-135 12-20 51-84 14-23 12-20 68-112 12-20 68-112 12-20 68-112 13-16 9-8 10-7 15-7 11-3 20-2 18 2 16 5 13 7 13 10 7 7 12 17 17 28 9 15 31 51 17 28 8 13 5 9h2l12-21 26-44 17-26 21-32 13-20 14-20 13-18 10-14 12-16 12-15 9-12 11-14 12-14 8-10 22-26 9-10 5-6h2l2-4 13-14 7-8 8-7 10-6zm-232 439-1 3 4 6 3 5 4-2 6-10-1-1zm335 555 2 5 10 17 9 15 85 140 12 20 5-1 7-8 3-3 1-4v-181z" fill="#010101"/>
<path transform="translate(937,660)" d="m0 0 5 5 8 14 13 21 14 23 17 28 15 25 34 56 9 15 51 84 12 20 14 23 51 84 15 25 14 23 17 28 12 20 16 26 19 32 10 16 17 28 12 20 51 84 9 15 17 28 12 20 68 112 15 25 14 23 17 28 9 15 8 13 34 56 12 20 31 51 13 21 3 5-1 3h-229l-458-1-1-803v-330z" fill="#FDCE5D"/>
<path transform="translate(875,661)" d="m0 0h3v351l-1 499-1 1-219 1-16 2-13 5-10 7-9 9-7 11-4 11-2 14-1 221-1 1-79 1h-325l-1-2 13-22 17-28 24-40 16-26 15-25 17-28 12-20 68-112 12-20 68-112 12-20 16-26 13-22 11-18 48-79 12-20 14-23 11-18 17-28 12-20 17-28 9-15 45-74 9-15 17-28 9-15 14-23 11-18 34-56 12-20 14-23 15-25 16-26 17-28 15-25z" fill="#FCB45E"/>
<path transform="translate(1360,476)" d="m0 0 6 5 9 11 13 14 9 11 10 11 9 11 12 14 15 20 20 26 13 17 11 15 8 12 19 28 11 16 14 21 14 23 12 20 14 23 7 11v3l-2 1-37 1-14 3-11 7-7 8-5 10-2 9v13l5 13 12 20 15 24 15 25 15 27 13 23 22 44 10 19 17 34-1 4-49 1-13 3-10 7-8 9-5 12-1 5v14l5 13 11 20 12 21 12 23 14 29 8 19 12 30 7 18 14 42v4l-2 1h-216l-7-10-13-22-17-28-15-25-11-18-68-112-12-20-85-140-27-45 1-6 6-9 11-18 13-21 10-17 4-10 1-6v-10l-2-9-6-11-6-7-10-6-9-3-8-1-37-1 1-6 8-13 24-40 15-23 22-33 9-14 11-16 10-13 11-15 14-19 21-28 11-14 14-17 9-11 12-14 11-12 7-8 11-13z" fill="#54CBA2"/>
<path transform="translate(1674,518)" d="m0 0 4 1 11 12 9 11 7 7 9 11 12 14 9 11 13 16 14 19 12 16 28 38 10 14 27 41 10 15 12 19 19 32 9 15v3l-2 1-32 1-11 3-10 6-9 10-4 8-2 7-1 15 3 12 8 15 15 24 17 28 16 29 10 18 12 23 14 28 10 19 10 20v4l-2 1-37 1-14 3-10 6-5 4-7 10-3 7-2 11 1 13 4 11 6 12 14 24 13 25 11 23 9 21 11 27 7 19 12 36v5l-2 1h-189l-47-1-3-6-15-48-11-30-11-28-12-27-13-28-12-23-10-18v-3l44-1 12-2 12-6 7-6 6-10 3-9 1-6v-8l-4-14-16-33-17-34-11-23-12-23-12-22-13-24-16-27-14-24-6-10v-2l37-1 12-2 10-5 9-8 7-13 2-11-1-13-5-12-12-22-14-24-16-27-13-20-12-19-14-22 1-5 9-11 10-13 14-18 10-13 11-14 10-11 7-8 12-14 9-10 8-10z" fill="#53B898"/>
<path transform="translate(429,325)" d="m0 0 25 2 19 4 21 7 20 10 16 11 11 9 11 10 9 11 9 12 8 14 3 8v12l-4 10-7 8-5 3 1 7 2 12 1 11v19l-2 18-5 16 1 5 8 7 5 11 1 9-4 13-8 12-8 10-12 13-14 12-14 9-10 6-24 10-19 5-20 3h-27l-20-2-24-7-15-6-21-11-12-9-14-12-9-9-8-10-10-14-12-23-9-29-3-20-1-9v-14l3-28 9-29 8-16 9-16 18-22 9-9 11-9 13-9 25-13 25-8 18-3z" fill="#010101"/>
<path transform="translate(875,661)" d="m0 0h3v351l-1 423h-1l-1-425-1-263-6 3-5 9-6 10-2 4h-2l-2 6-2 4h-2l-1 4-3 6-3 3-8 14-1 3-3 3-5 9h-2l-2 6-6 10-4 6-4 7-27 45-11 18-8 14-6 9-11 18-11 19h-2l-2 6-6 10-4 6-4 7-15 25-16 26-12 20-8 13-6 9-5 9-24 40-9 14-3 6-9 14-4 7-12 20-8 13-6 9-5 9-24 40-9 14-3 6-10 16-27 45-5 8-4 6-4 7-30 50-10 16-15 25-8 13-6 9-5 9-24 40-9 14-3 6-10 16-6 11-6 9-15 25-8 13-11 18-12 20-10 16-6 11-7 11-9 15-10 17-4 5-4 8-14 22-5 8-1 3h148l209 1v1l-79 1h-325l-1-2 13-22 17-28 24-40 16-26 15-25 17-28 12-20 68-112 12-20 68-112 12-20 16-26 13-22 11-18 48-79 12-20 14-23 11-18 17-28 12-20 17-28 9-15 45-74 9-15 17-28 9-15 14-23 11-18 34-56 12-20 14-23 15-25 16-26 17-28 15-25z" fill="#ED9B42"/>
<path transform="translate(1685,1608)" d="m0 0 17 1 13 3 17 8 12 9 6 5 10 13 11 14 8 6 8 4 11 3h11l23-4h9l16 3 16 8 10 9 7 8 11 19 8 9 8 5 14 4 18-1h15l12 6 8 9 4 10v11l-3 8-4 6-8 7-12 4-68 1-10 2-9 6-5 7-4 14h-81l-3-12-6-9-8-6-8-2-64-1-14-23-15-25-11-18-17-28-19-32-5-8v-5l12-18 7-7 13-10 16-8 16-4z" fill="#91B949"/>
<path transform="translate(1601,606)" d="m0 0 4 2 3 7 7 12 3 5 20 30 7 11 6 9 8 13 12 20 14 24 12 23 5 14 2 6 3 14 1 11-1 14-5 17-7 14-4 6h-2l-1 4h-2l-1 4-4 5-7 6-9 6-3 5 2 5 9 19 6 10 14 27 7 12 36 72 6 16 3 10 3 7 3 12 1 19-2 12-4 13-5 9-2 5-3 3-1 3h-2l-2 5-2 3h-2l-2 4-8 8-10 7-12 6 1 6 6 15 9 21 12 31 5 13 16 48 3 8 4 13 1 6-1 2h157l24-1v-11l-2-1-2-6v-5l-2-1-1-8-3-9-1-6h-2l-2-6-1-5-3-6v-3l-2-1-2-5-1-6-1-5h-2l-3-10-3-4-1-4-3-7v-5l3 4 9 19 11 27 9 23 14 42v5l-2 1h-189l-47-1-3-6-15-48-11-30-11-28-12-27-13-28-12-23-10-18v-3l44-1 12-2 12-6 7-6 6-10 3-9 1-6v-8l-4-14-16-33-17-34-11-23-12-23-12-22-13-24-16-27-14-24-6-10v-2l37-1 12-2 10-5 9-8 7-13 2-11-1-13-5-12-12-22-14-24-16-27-13-20-12-19-14-22 1-5 9-11 10-13z" fill="#53AB8F"/>
<path transform="translate(425,384)" d="m0 0h10l13 2 14 4 20 9 10 6v2l4 2 11 9 7 7 10 14 8 11 6 4 6 2 12 1 8-1 3 10 2 20v19l-2 18-6 20-8-2h-13l-12 6-10 11-11 14-10 9-13 9-15 7-14 5-18 3h-19l-17-3-17-6-15-8-13-10-12-12-8-11-10-19-5-15-3-21 1-17 2-14 6-17 9-17 7-9 9-10 10-9 11-7 15-8 16-5z" fill="#FDCE5D"/>
<path transform="translate(1195,875)" d="m0 0 4 1 1 6 7 9 6 10 4 7v2h2l6 10 7 11 5 7 12 22v2h2l9 16 5 7 4 8 3 4 6 11 8 13 7 12 16 26v2h2l6 12 4 6v2h2l4 8 2 5h2l3 6 8 13 8 14 3 4v2h2l4 8 7 11 5 9 2 5h2l4 7 2 3v3h2l2 3v3h2l4 8 6 9 4 7v2h2l2 4v3h2l5 9 7 11 6 9 4 7 13 20 13 21 6 9 3 7 5 6 3 2 3 7v4l2 1 2 6h151l3-1 3-6 2 3 2 6v4l-2 1h-216l-7-10-13-22-17-28-15-25-11-18-68-112-12-20-85-140-27-45 1-6 6-9 11-18z" fill="#53B798"/>
<path transform="translate(1685,1608)" d="m0 0 17 1 13 3 17 8 12 9 6 5 10 13 11 14 8 6 8 4 11 3h11l23-4h9l16 3 16 8 10 9 7 8 11 19 8 9 8 5 14 4 18-1h15l12 6 6 6v23h-2l3 5-2 5-8 8-10 2-2 1-48-1h-21l-6-5-1-6-3-1-6-8-3-5-6-8-5-6-7-6v-2l-4-1-2-3-9-5-10-6-14-5-16-4-32-2-20-1h-10l-14-2-12-4-9-5-8-7-8-11-7-10-3-5-7-12-5-9-6-10-7-14-2-5 3-4 15-6z" fill="#9BCB5A"/>
<path transform="translate(876,1615)" d="m0 0h1v179l-1 1h-178l2-4z" fill="#685E61"/>
<path transform="translate(656,1572)" d="m0 0h178l-2 4-8 7-9 9-7 8-24 24h-2l-2 4h-2l-1 3-7 6-5 6-6 5-6 7-7 6-20 20-5 6-8 7-57 57-2-1v-93l1-84z" fill="#FDCE5E"/>
<path transform="translate(967,717)" d="m0 0 2 1 6 12 2 1v2h2v2l4 1 1-2 17 29 11 18 34 56 15 25 11 18 14 23 17 28 12 20 14 23 51 84 15 25 14 23 17 28 12 20 16 26 19 32 10 16 17 28 12 20 51 84 9 15 17 28 12 20 68 112 15 25 14 23 17 28 9 15 8 13 34 56 12 20 31 51 13 21 3 5-1 3h-229l-438-1v-1h665l-1-2-9-1-5-3-6-17-8-10-22-36-31-51-6-9-4-7-8-13-20-32-13-21-12-20-11-18-8-13-12-20-12-19-8-14-10-16-15-25-16-27-12-21-12-20-10-17-9-15-6-11-7-11-5-10v-2h-2l-11-20-3-3-6-12-2-5h-2l-16-28-3-5-7-10-5-9-24-40-5-8-6-11-6-9-4-7-8-13-4-7-8-13-3-5-2-2v-3h-2l-5-10v-3h-2v-2h-2l-8-15v-3l-4-2-8-15v-3h-2l-4-5-3-7v-4l-3-1-6-10-3-8-5-5-4-5-3-10-4-2-4-7-3-5v-3h-2v-2h-2l-9-15-9-14-11-18-12-20-7-11-25-40-7-11-6-10-14-22-9-15-7-10-4-7-8-13-11-19-10-19-5-12z" fill="#F5CF59"/>
<path transform="translate(425,384)" d="m0 0h10l13 2 14 4v1l-10-1-29-2v2l-9 3-7 8-5 5-9 12-8 13-7 18-3 10-4 25v23l3 18 5 17 7 16 11 19 9 11 12 10 6 3v2l16-2 21-2-2 2-14 3-8 1h-19l-17-3-17-6-15-8-13-10-12-12-8-11-10-19-5-15-3-21 1-17 2-14 6-17 9-17 7-9 9-10 10-9 11-7 15-8 16-5z" fill="#FAB35E"/>
<path transform="translate(1653,1403)" d="m0 0h45l1 1v144l-1 1-27 2-13 2h-5z" fill="#C98D42"/>
<path transform="translate(422,684)" d="m0 0h12l9 3 10 9 4 8 2 10v49l-2 13-4 8-4 5-8 5-7 2h-12l-10-4-8-8-4-8-2-10v-53l3-12 6-8 7-6z" fill="#030403"/>
<path transform="translate(422,194)" d="m0 0h13l10 4 8 8 4 8 2 12v45l-2 15-4 8-4 5-8 5-6 2h-13l-10-4-5-4-6-10-3-12v-52l3-13 4-6 9-8z" fill="#030303"/>
<path transform="translate(942,970)" d="m0 0h1l2 18 1 49v42l1 10v22l1 49v20l-1 22v547l-2 26 1 5 3 6-2 5-7 2-2-5 1-774 1-27 1-13z" fill="#FED95B"/>
<path transform="translate(617,273)" d="m0 0h7l10 3 8 6 6 9 3 10-2 12-6 10-15 16-21 21-10 7-8 3-7 1-12-3-9-7-6-9-2-7v-9l4-10 7-9 20-20 1-2h2l2-4 13-12 10-5z" fill="#030303"/>
<path transform="translate(233,273)" d="m0 0h7l10 3 9 7 5 4 6 7 27 27 6 11 1 4v9l-3 9-4 6-8 7-9 3h-13l-9-4-13-11-9-9v-2l-4-2-5-6-7-6-8-10-4-7-2-12 3-10 6-9 8-6z" fill="#020303"/>
<path transform="translate(577,620)" d="m0 0h12l10 4 11 10 33 33 6 10 2 11-2 9-4 8-9 8-8 3-10 1-9-2-10-7-12-11-3-3v-2l-4-2v-2l-4-2-5-5-11-12-6-11-1-4v-9l4-11 8-9 8-4z" fill="#020303"/>
<path transform="translate(268,620)" d="m0 0h12l8 3 6 4 6 7 3 7 1 5v8l-3 9-10 13-29 29-12 9-11 3-11-1-10-5-7-8-4-10v-12l4-10 11-12 32-32 10-6z" fill="#020202"/>
<path transform="translate(645,465)" d="m0 0h57l9 2 8 5 7 8 4 10v10l-3 9-6 8-10 6-10 2h-57l-11-3-8-6-6-10-2-7v-8l3-9 4-6 5-5 10-5z" fill="#020202"/>
<path transform="translate(155,465)" d="m0 0h57l12 3 10 9 5 10 1 4v8l-4 11-5 7-10 6-9 2h-58l-11-3-10-9-5-10-1-4v-7l3-11 9-10 10-5z" fill="#030303"/>
<path transform="translate(873,987)" d="m0 0h1l2 23 1 425v76h-44v-1l12-1 18 1 2-4 3-1 2-8v-14l-1-42v-413l1-28z" fill="#FCCC5D"/>
<path transform="translate(656,1572)" d="m0 0h178l-2 4-8 7-9 9-7 8-24 24h-2l-2 4h-2l-1 3-7 6-5 6-6 5-6 7-7 6-20 20-5 6-8 7-57 57-2-1v-93l1-84zm0 1v162l4-6 9-2 8-7 14-14v-2l4-2v-2h2v-2h2v-2h2v-2h2v-2h2v-2h2v-2h2v-2h2v-2h2v-2h2l7-8 34-34 7-8 43-43 5-4 1-5-4-7z" fill="#EFC558"/>
<path transform="translate(1156,1785)" d="m0 0h133l49 1 23 1-3 3-3 1-27 1h-217l-37-1v-1h-12l-2-1-23-2v-1h92z" fill="#FED95B"/>
<path transform="translate(937,660)" d="m0 0 5 5v2h-2v120l-1 217-1 515h-1l-1-528v-330z" fill="#A77C4F"/>
<path transform="translate(1360,476)" d="m0 0 6 5 9 11 13 14 9 11 10 11 9 11 12 14 15 20 20 26 13 17 11 15 8 12 15 22-1 2h-3l-1-2h-3v-2h-2v-4l-2-1 1-2-4-1-1-4h-2v-4h-2v-2h-2l-2-5h-2v-3l-2-1v-3h-2l-4-4v-4l-4-1-4-7v-2h-2v-2h-2l-9-11-1-5h-2l-9-11-1-5h-2l-6-7v-2h-2l-2-7h-2v-2h-2v-2h-2l-2-5-4-2-4-7v-2h-2v-2h-2v-2h-2l-6-8-2-1v-3l-4-2v-2h-2v-2h-2l-2-6-3-1-7-9v-2h-2v-2h-2v-2h-2v-2h-2v-2h-2l-7-8-5-1-3-1v-2l-3-1z" fill="#55AF93"/>
<path transform="translate(877,672)" d="m0 0h1v340l-1 423h-1l-1-425v-175l1-1v-122z" fill="#937254"/>
<path transform="translate(462,391)" d="m0 0 5 1 19 9 6 4v2l4 2 11 9 7 7 10 14 8 11 6 4 6 2 12 2v1h-15l1 4-4-1-2-1v-2l-7-2-3-3-5-3-7-8-10-11-6-5-5-5-10-8-6-4-5-4-6-5v-2l6-1-10-5z" fill="#F3CD59"/>
<path transform="translate(1620,1786)" d="m0 0 4 4 1 4-1 1h-229l-438-1v-1h665z" fill="#B4834A"/>
<path transform="translate(190,1791)" d="m0 0 1 2h403v1l-79 1h-325l-1-2z" fill="#A1794F"/>
<path transform="translate(656,1573)" d="m0 0h83l17 1v1l-20 1-54 1-14 3-4 6-1 4-1 14-1 1v9l-1 1v20l-1 43-1 7h-1l-1-83z" fill="#FED95B"/>
<path transform="translate(1152,757)" d="m0 0 3 2-2 6-2 4-2 7-1 1 1 7 33 1 3-1 1 1 7 1v3l3-1 1 4 2 1v3l6 2 3 2 2 1v2l3 1v3l3 3v8l-1 1v23h-2v-15l-2-9-6-11-6-7-10-6-9-3-8-1-37-1 1-6 8-13z" fill="#56AA8F"/>
<path transform="translate(1638,1336)" d="m0 0 2 3v4l-2 1h-216l-2-3 7-1 7-2h21l21 1 17 1 36 1 110 1z" fill="#589783"/>
<path transform="translate(636,1513)" d="m0 0m-4 1 6 1-3 2-12 6-10 9-6 7-6 11-4 13-1 9-1 219h-1v-222l1-3h-2v-9l8-16 6-11 5-2 11-11z" fill="#AD8B58"/>
<path transform="translate(527,544)" d="m0 0 1 3-10 11-11 14-10 9-13 9-6 3-3-1 2-4 9-9 9-7 11-12 12-12 4-3z" fill="#F2CC5A"/>
<path transform="translate(1907,1031)" d="m0 0 3 4 15 29 8 16v4l-2 1-37 1-14 3-4 1 2-4 4-1v-2l12-2h26l4 1v-5l-4-9-3-9-4-10v-2h-2l-2-8h-2l-1-6z" fill="#589984"/>
<path transform="translate(1614,1035)" d="m0 0 3 4 15 30-1 4-49 1-14 3v-2l10-4 6-1 12-1h25l-1-5-2-7-4-10-2-8z" fill="#54AF92"/>
<path transform="translate(1567,756)" d="m0 0 3 3 9 15 7 11v3l-2 1-37 1-10 1v-3l14-3h22l-1-5-5-10-1-6h-2v-4l3-2z" fill="#56A68D"/>
<path transform="translate(1832,1670)" d="m0 0h9l16 3 16 8 8 7-4 1-2-1-6-1v-2h-3v-2l-3 1v-3h-2l-1 2-4-2-3-1v-2l-7-2-8-1h-9l-3 2h-26l-14-4-2-2 10 2 4 1h11z" fill="#7C9C5A"/>
<path transform="translate(875,661)" d="m0 0h3l-1 51v122l-2 1-1-112v-52l-4 2-1 2-2-1z" fill="#D09042"/>
<path transform="translate(1862,766)" d="m0 0 4 5 17 29 6 10v3l-2 1-32 1-13 3 1-3 6-3 2-2h29l-3-7-1-4 1-3-3-1-2-5-4-5-1-5-4-5 1-2-1-1z" fill="#599583"/>
<path transform="translate(1698,1404)" d="m0 0h1v144l-1 1-27 2h-7v-1l13-2 20-1v-80z" fill="#685E61"/>
<path transform="translate(1886,1694)" d="m0 0 4 4 11 19 8 9 8 5 14 4 18-1h15l7 3-3 1-3-1h-37l-12-4-9-6-9-4 1-4h-2v-2l-4-2-1-4h-2l-2-5v-2l-2-1 1-2-2-4z" fill="#75935F"/>
<path transform="translate(1152,757)" d="m0 0 3 2-2 6-2 4-2 7-1 1 1 7 25 1 1 2h-36l-2-1 2-7 11-19z" fill="#54B294"/>
<path transform="translate(1685,1608)" d="m0 0 17 1 13 3 2 2h-3l-1 3-9-1-5-1v-2h-25l-6-1 4-2z" fill="#82A655"/>
<path transform="translate(939,666)" d="m0 0 4 1 12 20v3l-4 2h-5l-4-6-1-5v-4l-2-8z" fill="#EEC759"/>
<path transform="translate(425,384)" d="m0 0h10l13 2 14 4v1l-10-1-11-1h-18l-16 1h-10l3-2 9-2z" fill="#A57B50"/>
<path transform="translate(1944,1736)" d="m0 0h21l10 3 7 7v2h-3v-2l-9-1-9-7-4-1v2l-7 1-4-1h-15l-2-2z" fill="#8BB04D"/>
<path transform="translate(1691,535)" d="m0 0 5 4 7 8 9 10 3 5-1 2-4-1-7-8v-2l-4-2-7-8v-2h-2v-4z" fill="#579E88"/>
<path transform="translate(1915,1792)" d="m0 0h53l-3 2-4 1-75 1v-1l6-1 21-1z" fill="#5F7C73"/>
<path transform="translate(1982,1748)" d="m0 0 3 3 3 8v11l-1 4h-2v2h-2l-3-4v-3h2l-1-4v-14z" fill="#88AC50"/>
<path transform="translate(320,473)" d="m0 0h1l1 7v22l4 26v5l-2-3-4-14-2-16 1-17z" fill="#BB8549"/>
<path transform="translate(875,661)" d="m0 0h3l-1 51h-2l-1-41-4 2-1 2-2-1z" fill="#BC8647"/>
<path transform="translate(1591,1069)" d="m0 0h23l6 1v1l11 1v1l-49 1-14 3v-2l10-4 6-1z" fill="#5D8B7D"/>
<path transform="translate(1715,562)" d="m0 0 5 5 11 13 5 6v2l-6-1v-2l-4-1-5-6-2-3v-5l-2-4h-2z" fill="#579D87"/>
<path transform="translate(1556,767)" d="m0 0 5 1 4 5v4l-6 1-8-3-1-4 3-3z" fill="#53B999"/>
<path transform="translate(592,1782)" d="m0 0 2 2 1 9h-19v-3l10-3 3-4z" fill="#FCCD5D"/>
<path transform="translate(1137,782)" d="m0 0 1 2-1 2 39 1 3 2h-44l1-6z" fill="#5C897B"/>
<path transform="translate(1679,521)" d="m0 0 5 5 7 8-3 3h-2l-4-4v-2h-2v-2l-2-1-2-4z" fill="#55A28A"/>
<path transform="translate(603,1540)" d="m0 0 1 4-4 8-2 6h-2l-1 8h-2v-9l7-14z" fill="#EFBF5B"/>
<path transform="translate(380,593)" d="m0 0 9 2 6 2 13 3v2h9l7 2v1l-14-1-12-3-16-6z" fill="#B1814C"/>
<path transform="translate(518,432)" d="m0 0 4 4 7 10 4 5 8 4 15 3v1h-13l-11-6-8-9-6-9z" fill="#A27B52"/>
<path transform="translate(1602,1050)" d="m0 0 8 2 1 2v6l-4 1-5-2z" fill="#53B999"/>
<path transform="translate(1740,593)" d="m0 0 5 5 7 9h-3l-7-3-2-4-2-2 2-3z" fill="#56A189"/>
<path transform="translate(1631,1162)" d="m0 0 4 1 11 22-2 4-9-19z" fill="#57A18A"/>
<path transform="translate(1549,785)" d="m0 0h22l1 2h-22v2l-13 2v-3z" fill="#55AA8F"/>
<path transform="translate(1077,890)" d="m0 0 3 3 8 13-1 2-4-1-6-10z" fill="#D9AC58"/>
<path transform="translate(458,599)" d="m0 0 3 1-16 4-14 1 4-3 11-2z" fill="#B5834D"/>
<path transform="translate(1944,1736)" d="m0 0h17l-4 1v2l-7 1-4-1h-15l-2-2z" fill="#92BB49"/>
<path transform="translate(1676,1263)" d="m0 0h3l3 9 4 10v7l-2-3-8-22z" fill="#599A86"/>
<path transform="translate(1674,518)" d="m0 0 3 1h-2l-3 9-6 4-8 8-2-1 7-7 8-10z" fill="#5A907F"/>
<path transform="translate(320,473)" d="m0 0h1l1 7v9l-2 4v16h-1l-1-17z" fill="#907155"/>
<path transform="translate(1895,1223)" d="m0 0 3 4 7 15v2l-4-2-2-5-4-9z" fill="#5A9281"/>
<path transform="translate(1066,872)" d="m0 0 4 4 7 12-1 2-3-3h-2l-4-7-1-3-1-2z" fill="#DAAA55"/>
<path transform="translate(559,530)" d="m0 0 5 2-2 5-6 2-2-3v-4z" fill="#FED95B"/>
<path transform="translate(1545,907)" d="m0 0 3 3 3 5-1 2-2-1v3l-2-1 1-2h-3l-4-8h4l1 1z" fill="#55B294"/>
<path transform="translate(1765,626)" d="m0 0 5 5 5 6v2l-6-2-5-5v-3l2 1z" fill="#579E88"/>
<path transform="translate(1704,553)" d="m0 0 5 1 6 8-1 2-4-1-7-8z" fill="#56A38B"/>
<path transform="translate(1777,642)" d="m0 0 5 5 4 5v2l-6-2-6-5 1-2h2z" fill="#579C86"/>
<path transform="translate(1499,657)" d="m0 0h2l1 2 5 2 3 4-1 2h-3l-1-2h-3v-2h-2v-4l-2-1z" fill="#54B395"/>
<path transform="translate(438,386)" d="m0 0 15 1 9 3v1l-10-1-11-1-3-1z" fill="#BD8649"/>
<path transform="translate(1665 1e3)" d="m0 0h3l7 15v5l-3-4-7-14z" fill="#5B9080"/>
<path transform="translate(1507,670)" d="m0 0h2v2l5-1 5 7-1 2-6-2-2-1v-2h-2z" fill="#55AF92"/>
<path transform="translate(1755,612)" d="m0 0 5 5 3 4-1 2-5-2-4-4v-2l-2-1h3z" fill="#579F88"/>
<path transform="translate(1829,1672)" d="m0 0m-5 1h5l-1 3-7 1h-15v-1z" fill="#92BB49"/>
<path transform="translate(1816,849)" d="m0 0h2v20l-2-1-1-3v-11z" fill="#5D8478"/>
<path transform="translate(1211,816)" d="m0 0 2 1v2h2v23h-2v-15z" fill="#5F8176"/>
<path transform="translate(1516,683)" d="m0 0 4 1h3l3 4-1 2h-3l-4-1v-2h-2z" fill="#56AE92"/>
<path transform="translate(1717,1614)" d="m0 0 9 3-2 1-1 2-4 1-4-3h3z" fill="#86AE55"/>
<path transform="translate(1833,820)" d="m0 0 1 2 2 1-7 6-3 3-1-4 5-5 3-1z" fill="#589884"/>
<path transform="translate(983,734)" d="m0 0 4 5 4 7-1 2-5-3v-4h-2z" fill="#C99C55"/>
<path transform="translate(1088,908)" d="m0 0 3 3 6 10-1 2-1-3h-4l-2-5 1-3h-2z" fill="#C89A54"/>
<path transform="translate(1058,859)" d="m0 0 4 4 4 7-1 2-1-3h-2v-2h-3v-2h-2z" fill="#D2A556"/>
<path transform="translate(1643,960)" d="m0 0h3l6 12-2 2z" fill="#599C87"/>
<path transform="translate(518,432)" d="m0 0 4 4 7 10 1 2-4-1-8-12z" fill="#B1804D"/>
<path transform="translate(1351,486)" d="m0 0 1 2 2 1-5 3-8 8-2-1 7-7z" fill="#599D87"/>
<path transform="translate(1640,1625)" d="m0 0h2l-1 3-10 8-3 3-2-1 7-7z" fill="#829C5A"/>
<path transform="translate(649,1510)" d="m0 0m-6 1 14 1v1l-18 1 1-2z" fill="#CDA45C"/>
<path transform="translate(1631,1162)" d="m0 0 4 1 4 8-1 3-4-5z" fill="#599A86"/>
<path transform="translate(1578,1071)" d="m0 0 6 1-2 2-14 3v-2z" fill="#5A9583"/>
<path transform="translate(1660,989)" d="m0 0 3 4 3 6-2 4-5-11z" fill="#57A18A"/>
<path transform="translate(1786,654)" d="m0 0 5 5 5 8-4-1v-2h-2l-4-8z" fill="#5A9582"/>
<path transform="translate(1559,747)" d="m0 0 1 4 2-1 1-2 4 6-1 2-7-4-1-3z" fill="#56A78E"/>
<path transform="translate(346,567)" d="m0 0 4 2 9 8-1 3-12-12z" fill="#C58A48"/>
<path transform="translate(1675,519)" d="m0 0 4 1-1 3-4 4h-2l1-5z" fill="#54AE92"/>
<path transform="translate(325,457)" d="m0 0h1v9h-2l-1 6-2 1 1-6z" fill="#A17950"/>
<path transform="translate(519,436)" d="m0 0 4 5 5 8-5-2-2-4v-3l-3-1z" fill="#FECF5E"/>
<path transform="translate(1567,945)" d="m0 0 4 5-1 2-1-1-2 3-1-2h-2l1-5z" fill="#56A68D"/>
<path transform="translate(937,660)" d="m0 0 5 5v2h-2l-1 2h-2l-1-8z" fill="#BD884B"/>
<path transform="translate(1671,1245)" d="m0 0 2 1 2 9-2 2-3-8z" fill="#58A089"/>
<path transform="translate(388,392)" d="m0 0 3 1-6 4-7 1 4-3z" fill="#AF7F4D"/>
</svg>
