<?xml version="1.0" encoding="UTF-8"?>
<svg version="1.1" viewBox="0 0 2048 2048" width="1280" height="1280" xmlns="http://www.w3.org/2000/svg">
<path transform="translate(769,103)" d="m0 0h28l20 3 18 5 21 9 15 9 12 9 10 9 12 12 12 16 10 18 8 20 5 19 2 12 1 11v14l-2 19-4 18-7 21-9 19-3 4 2 5 10 10 7 6 6 7 6 5 7 8 13 13 3 2 1047 1 9 2 9 6 7 8 4 8v1282l-7 36-8 27-8 20-10 19-9 15-14 19-10 11-7 8-10 10-22 18-15 10-16 9-16 8-20 8-25 7-28 5-25 2-41 1h-1504l-39-4-24-5-20-6-25-10-21-11-18-12-12-9-14-12-18-18-9-11-10-13-12-19-8-15-10-24-8-26-5-20v-20l7-11 8-7 9-4h229v-1255l4-11 6-8 9-6 7-2 28-1h401l-12-7-11-8-13-11-10-10-11-14-9-14-8-16-8-24-3-16-2-17v-13l4-28 5-17 6-16 6-11 10-16 9-11 18-18 17-12 14-8 20-8 18-5zm101 295-14 7-1 2h25l-2-4-4-2v-2z" fill="#FEEDC9"/>
<path transform="translate(318,408)" d="m0 0h34l48 1 11 1 15 4v4l4 1-5 2v3l-5 5-4 7-2 49 1 11 1 35v57l1 353v684l-2 14-1 21-2 7-2 10-4 3h-2v2l6 3 27 2 1064 1 15 2 9 6 6 8 5 15 6 26 8 28 10 25 12 23 8 12 8 11 12 14 7 8 12 12 11 9 17 13 19 12 23 12 25 9 18 4 22 5 25 2v1l-22 1h-1504l-39-4-24-5-20-6-25-10-21-11-18-12-12-9-14-12-18-18-9-11-10-13-12-19-8-15-10-24-8-26-5-20v-20l7-11 8-7 9-4h229v-1215h1l1 8 3 1v-48l4-10 9-8 12-5 17-3z" fill="#FEDE99"/>
<path transform="translate(318,408)" d="m0 0h34l48 1 11 1 15 4v4l4 1-5 2v3l-5 5-4 7-2 49 1 11 1 35v57l1 353v684l-2 14-1 21-2 7-2 10-4 3h-2v2l6 3 27 2 1064 1v1h-1167l-74 1-6 1-1-1v-1216h1l1 8 3 1v-48l4-10 9-8 12-5 17-3z" fill="#FEE6B4"/>
<path transform="translate(769,103)" d="m0 0h28l20 3 18 5 21 9 15 9 12 9 10 9 12 12 12 16 10 18 8 20 5 19 2 12 1 11v14l-2 19-4 18-7 21-9 19-7 11-9 11-19 19-10 8-6 4-14 7-5 3-15 6-18 5-22 4h-23l-16-2-21-5-24-9-15-8-12-9-13-11-10-10-11-14-9-14-8-16-8-24-3-16-2-17v-13l4-28 5-17 6-16 6-11 10-16 9-11 18-18 17-12 14-8 20-8 18-5z" fill="#7653C6"/>
<path transform="translate(1209,824)" d="m0 0h13l30 7 28 9 21 8 16 7 24 12 22 14 13 10 10 9 8 7 10 11 10 14 10 17 8 19 5 20 2 14v27l-4 23-6 18-10 19-8 11-11 12-8 8-15 11-16 10-27 13-24 8-24 6-27 5-27 3h-22l-11-4-7-5-6-9-2-5-1-7v-294l2-9 6-8 8-7z" fill="#6D5575"/>
<path transform="translate(1620,856)" d="m0 0h23l18 4 16 6 16 9 10 8 13 12 11 14 11 18 8 17 7 21 4 17 2 16 1 25-2 19-5 25-7 21-10 21-12 18-12 13-5 5-9 8-14 9-12 6-19 6-13 2h-16l-18-3-18-6-16-9-12-9-13-12-9-11-10-15-8-15-7-18-6-23-3-19v-38l3-20 4-17 8-22 11-21 12-17 11-12 8-7 14-10 15-8 18-6z" fill="#6D5575"/>
<path transform="translate(915,856)" d="m0 0h23l19 4 15 6 16 9 14 11 10 10 13 17 9 16 6 12 6 16 5 19 3 20 1 12v18l-3 25-5 20-7 20-8 16-9 15-9 11-9 10-11 9-13 9-14 7-18 6-13 2h-16l-19-3-15-5-16-8-12-9-10-9-11-11-10-14-8-13-7-16-7-21-5-25-1-8v-35l4-24 5-19 6-16 8-16 7-12 10-13 16-16 15-11 16-8 14-5z" fill="#6D5575"/>
<path transform="translate(869,1272)" d="m0 0h635l11 2 8 5 8 9 4 10 1 10-4 11-6 8-8 6-9 3h-652l-9-3-9-7-6-9-2-5v-16l4-9 6-7 8-5 6-2z" fill="#FA9436"/>
<path transform="translate(710,119)" d="m0 0 4 1-1 5-5 17-4 24-1 14v16l4 25 8 24 8 16 7 11 12 16 6 7 8 7 4 3v2l5 2 9 7 14 8 13 6 15 6 16 4 16 2h26l17-2 20-5 9-4 7-3-2 10-6 11-7 11-12 13-14 14-10 8-6 4-14 7-5 3-15 6-18 5-22 4h-23l-16-2-21-5-24-9-15-8-12-9-13-11-10-10-11-14-9-14-8-16-8-24-3-16-2-17v-13l4-28 5-17 6-16 6-11 10-16 9-11 18-18 17-12z" fill="#582ABB"/>
<path transform="translate(569,856)" d="m0 0h203l11 4 9 8 5 9 1 4v14l-4 9-7 8-5 4-8 3-8 1-63 1-1 228-3 9-6 8-7 6-7 3-5 1h-9l-11-4-8-7-6-10-2-15v-220h-63l-11-2-8-4-5-4-6-8-2-5-1-10 2-10 4-8 7-7 9-5z" fill="#6D5575"/>
<path transform="translate(1251,1432)" d="m0 0h89l15 2 8 5 7 8 4 8 1 4v13l-6 12-9 8-8 4-211 1h-33l-188-1-8-3-8-6-6-8-3-7v-16l4-9 6-7 12-6 4-1z" fill="#FA9436"/>
<path transform="translate(1247,897)" d="m0 0 6 1 27 10 29 14 19 12 14 12 11 11 10 14 8 17 4 15v25l-3 12-8 16-7 9-9 9-15 10-16 8-16 6-17 5-27 6-9 1-1-1z" fill="#FEEDC9"/>
<path transform="translate(919,920)" d="m0 0h16l12 4 10 7 11 11 11 18 7 18 4 19 1 8v22l-3 20-5 16-8 17-8 11-5 6-12 9-11 5-4 1h-16l-12-4-11-7-10-10-9-14-7-15-5-17-3-21v-15l2-16 4-17 6-16 7-12 8-10 7-7 13-8z" fill="#FEEDC9"/>
<path transform="translate(1623,920)" d="m0 0h17l13 5 10 7 9 9 9 14 7 15 5 17 3 21v16l-2 17-5 19-7 16-7 11-9 10-8 7-12 6-6 2h-16l-12-4-10-6-12-12-10-16-7-17-4-16-2-17v-18l3-20 5-17 8-17 10-13 8-8 11-7z" fill="#FEEDC9"/>
<path transform="translate(917,352)" d="m0 0 6 5 4 5 6 5 6 7 6 5 7 8 17 17 5 4 4 6 10 10v2l4 2 113 113 10 13 4 11-1 10-5 9-8 9-9 5-4 1h-11l-10-4-11-9-23-23v-2h-2v-2h-2v-2h-2l-6-7-6-5-7-8-12-12-5-4-7-8-96-96-4-3v-2l-4-2-8-8-2-1v-2h-2l1-3 14-11 20-20z" fill="#C7BCC6"/>
<path transform="translate(305,1940)" d="m0 0 1177 1 37 1v1l17 1v1l-1133 1h-150l-9-1 1-2 15-1z" fill="#FEE7B5"/>
<path transform="translate(1119,407)" d="m0 0h761v1l-37 2-60 2h-531l-56-1-22-2-55-1z" fill="#FFF8D3"/>
<path transform="translate(1757,1055)" d="m0 0 2 3 1 5-4 19-5 14-8 16-8 14-9 11-17 17-16 11-14 7-17 5-17 4h-17l-21-3-5-2-3-4h7l18 3h16l17-3 15-5 14-7 17-12 6-6h2l2-4 11-12 12-19 9-19 7-21 2-8h2z" fill="#FCF3D1"/>
<path transform="translate(2039,1748)" d="m0 0 2 1-8 27-8 20-10 19-9 15-14 19-10 11-7 8-10 10-22 18-15 10-16 9-16 8-20 8-25 7-22 4 1-4 10-2 9-2 6-2 16-6 7-2 13-4 16-8 5-3 15-8 6-4h2l1-3 12-9h2v-2l6-5h2v-2h2v-2l8-7 7-6 5-6 5-5 11-13 12-20 4-7 3-5 5-13 7-16 5-14 3-11z" fill="#FEF8D4"/>
<path transform="translate(1049,1065)" d="m0 0h3l-1 3v11l-5 16-9 19-8 12-7 9-11 12-14 11-12 8-14 6-15 4-11 1-4 3h-18l-15-2-11-2-3-4h7l19 3h16l16-3 15-5 16-8 16-12 10-9 9-11 9-13 7-12 8-19 4-12 3-1z" fill="#FBF3D0"/>
<path transform="translate(1433,1063)" d="m0 0h2v7l-6 15-9 15-8 10-15 15-15 11-16 10-18 8-18 7-14 3h-3l2-4 10-4 13-5 25-12 11-7 14-10 12-11 7-7 9-12 9-16 7-12z" fill="#FBF3D1"/>
<path transform="translate(307,406)" d="m0 0 128 1 7 3 21 3v2h-18l-1-1h-10l-16-1-7-2-11-1-48-1h-34l-18 1-17 3-12 5-9 8-3 10v44l-1 3-4-1-1-8v-40l4-11 6-8 9-6 7-2z" fill="#FEF7D3"/>
<path transform="translate(566,854)" d="m0 0h61v1l-41 1-17 1-9 3-8 6-6 8-2 5-1 11 2 9 4 7 5 5 7 5 6 2 8 1 62 1-1 6h-8l-13-2-2-1-21 1-4 1h-22l-11-3-8-6-6-7-3-7-1-11v-15l3-7 7-7 14-7z" fill="#FDF4D0"/>
<path transform="translate(1287,913)" d="m0 0 10 3 17 9 15 10 13 11 11 11 10 14 8 17v12l-4-1-5-13-7-12-9-11v-2h-2l-7-8-9-9-10-7-4-4-5-3-3-4-10-5-5-3v-2h-4z" fill="#FCF3CF"/>
<path transform="translate(800,1056)" d="m0 0h2l3 12 4 9 7 18 8 16 11 16 11 12 9 9 15 11 11 6v2l2 1-12-2-11-6-8-7-6-5v-2l-4-2-9-9-6-8-2-6-5-6-2-6h-2l-5-14-6-16-2-6-1-7h-2l-1-7z" fill="#FBF1CE"/>
<path transform="translate(942,924)" d="m0 0 10 3 10 9 8 9 9 15 7 18 1 4v13l-4-4-2-9-5-8-8-16-4-5v-2h-2l-5-6v-2l-4-2-3-3v-2h-2l-6-9z" fill="#FCF4D0"/>
<path transform="translate(1647,924)" d="m0 0 8 2 9 7 8 8 9 14 7 15 4 13-1 9-4-3-3-10-9-17-6-9-11-13-8-7-3-6z" fill="#FCF4D1"/>
<path transform="translate(637,1147)" d="m0 0h2l3 10 6 9 8 6 9 3h9l10-3 8-6 6-8 2-4h2v-3h2l1 7-3 7-7 8-10 7-10 3-15-2-7-3-10-8-3-3-4-11v-7z" fill="#FDF4D1"/>
<path transform="translate(913,923)" d="m0 0 2 1-2 5-11 9-11 11-8 13-8 14-3 1-2-4 1-6 8-16 9-12 8-8 11-7z" fill="#FCF3D1"/>
<path transform="translate(1612,924)" d="m0 0h5l1 4-10 9-11 11-9 13-5 8-4 9h-4l1-8 8-17 3-7 12-13 11-8z" fill="#FEF6D2"/>
<path transform="translate(1523,1105)" d="m0 0 4 2 7 12 9 12 12 13 10 8 14 9 14 7 3 1v2l2 1-2 1-7-2-2-2-7-2-8-4-4-4-8-2-7-7-8-7-9-10-4-9-5-6-2-7-2-2z" fill="#FBF2CF"/>
<path transform="translate(1967,407)" d="m0 0h52l9 2 9 6 7 8 3 6v2l-5-2-1-3h-2v-2l-4-2-6-5-8-4-18-2h-11l-25-3z" fill="#FEF8D4"/>
<path transform="translate(257,1613)" d="m0 0 2 4 1 49-1 9-2 2h-3v-48l1-14z" fill="#FFF8D3"/>
<path transform="translate(65,1861)" d="m0 0 5 1 5 4v2l4 2 4 4v2h2v2l5 1 8 6 4 4 3 4 8 4v2l4 2 3 2v2h2v2l6 2 13 8-2 1-20-11-20-14-11-9-12-11-11-11z" fill="#FEE8B6"/>
<path transform="translate(1701,876)" d="m0 0 8 4 13 13 5 9 6 7 1 5-5-1-11-14-10-11-11-9 1-2z" fill="#FDF3CE"/>
<path transform="translate(854,407)" d="m0 0h18l-4 5-18 5-10 3-7 1-6-2 3-2h2v-2l17-6z" fill="#FCF4D1"/>
<path transform="translate(1364,1051)" d="m0 0 1 3-7 10-10 10-15 10-5 3h-5l5-4 1-2h3l2-4 8-5h2v-2h2v-2l9-6 5-8z" fill="#FAF2D0"/>
<path transform="translate(4,1744)" d="m0 0 2 2 3 6 3 3 1 13h2l5 15v7l3 1 2 9 2 1 1 5-3-1-9-20-10-30z" fill="#FEE7B7"/>
<path transform="translate(1714,1933)" d="m0 0 8 1 19 3 15 1 12 3 5 1 14 1 1 2-23-1-17-2-16-4-18-4z" fill="#FEE7B5"/>
<path transform="translate(24,1689)" d="m0 0h4l-1 4-12 6-9 10-6 4 2-5 6-9 9-7z" fill="#FEE8B7"/>
<path transform="translate(1207,1176)" d="m0 0h36v2l-7 1-4-1v2l-4 1h-14l-7-4z" fill="#FEF6D1"/>
<path transform="translate(617,920)" d="m0 0h20l-1 6h-8l-13-2-2-1-9-1v-1z" fill="#FEF6D1"/>
<path transform="translate(800,1056)" d="m0 0h2l3 12 4 9 3 12-1 3-3-4-4-10-2-12h-2l-1-7z" fill="#FCF4D1"/>
<path transform="translate(975,1074)" d="m0 0 1 4-8 12-6 7-4 3h-2l1-4 5-5 6-11 6-4z" fill="#FAF0CE"/>
<path transform="translate(1368,1484)" d="m0 0h2v2l-3 3-3 5-2 2-6 2-18 1-15-1v-1l21-1 11-2 10-7z" fill="#FEF5CE"/>
<path transform="translate(1185,1159)" d="m0 0 3 1 4 5v2l18 9-3 1h-7l-10-8-6-6z" fill="#F8EECF"/>
<path transform="translate(999,881)" d="m0 0h5l8 7 3 6-4 2-11-11z" fill="#FEF6D1"/>
<path transform="translate(1584,865)" d="m0 0h2v2l-14 8-12 9-6 5v-3l7-7h2v-2h2v-2h2v-2l8-4z" fill="#F6EDCF"/>
<path transform="translate(39,1828)" d="m0 0 4 1 6 5 2 5 5 6 2 5-1 3-11-14z" fill="#FEE7B6"/>
<path transform="translate(1247,897)" d="m0 0 6 1 11 4-3 1h-6l-5 6h-2l-1 3z" fill="#F1E2C8"/>
<path transform="translate(911,1493)" d="m0 0 13 3 26 1v1l-10 1-2 1h-10l-1-1-11-1-5-3z" fill="#FFF8D3"/>
<path transform="translate(884,1083)" d="m0 0 5 1 9 9 2 6-4-2-9-8v-2h-2z" fill="#FFF8D3"/>
<path transform="translate(1679,1075)" d="m0 0 1 4-7 11-6 6-4 1v-2h2l2-4 2-3h2l2-5 3-5z" fill="#FAF1CF"/>
<path transform="translate(1255,902)" d="m0 0 12 1v2h-8l-6 4-2 3h2l-1 5-2 5h-1v-13z" fill="#FEF6D2"/>
<path transform="translate(883,863)" d="m0 0h3v2l-16 8-8 6h-2l2-4 7-6z" fill="#FAF1D0"/>
<path transform="translate(842,893)" d="m0 0h2l-2 4-7 8-3 4-2-1 2-7 8-7z" fill="#FBF0CE"/>
<path transform="translate(1401,911)" d="m0 0 9 6 2 5v2l-5-1-5-6z" fill="#FEF3CE"/>
<path transform="translate(28,1808)" d="m0 0 3 1 5 8 4 4v6l-3-1-9-16z" fill="#FEE7B6"/>
<path transform="translate(1020,902)" d="m0 0 4 1 5 7-1 4-4-1-4-5-1-5z" fill="#FDF3CE"/>
<path transform="translate(1223,821)" d="m0 0 17 5v1h-9l-11-3-9-1v-1z" fill="#FBF2D0"/>
<path transform="translate(919,854)" d="m0 0h25l8 3v1h-8l-7-2-18-1z" fill="#FBF3D1"/>
<path transform="translate(1368,1484)" d="m0 0h2v2l-3 3-3 5-2 2h-5l1-4 8-6z" fill="#FEF6D6"/>
<path transform="translate(1605,928)" d="m0 0 2 1-18 18-2-1 12-13z" fill="#F2E4C8"/>
<path transform="translate(796,1032)" d="m0 0h2l2 14v5l-3-2-1-3z" fill="#FFF8D3"/>
<path transform="translate(773,425)" d="m0 0h22l-3 2-18 1z" fill="#FFF8D3"/>
<path transform="translate(704,922)" d="m0 0h7l-1 6-3 2-3-2z" fill="#FFF8D3"/>
<path transform="translate(1528,1324)" d="m0 0h2l-1 3h-2l-2 4-4 4-3-1v-2l9-7z" fill="#FEF4D1"/>
<path transform="translate(911,1493)" d="m0 0 16 4v1h-11l-5-3z" fill="#FEF5D2"/>
<path transform="translate(1587,1167)" d="m0 0 6 1 3 1v2l2 1-2 1-7-2z" fill="#FAF0CF"/>
<path transform="translate(1642,854)" d="m0 0h6l5 4-10-1z" fill="#F8EECE"/>
</svg>
